<svg width="1440" height="1024" viewBox="0 0 1440 1024" fill="none" xmlns="http://www.w3.org/2000/svg">
<g clip-path="url(#clip0_404_2)">
<rect width="1440" height="1024" fill="#636363"/>
<rect width="1440" height="226" fill="#999A9A"/>
<rect y="399" width="1440" height="226" fill="#999A9A"/>
<rect y="798" width="1440" height="226" fill="#999A9A"/>
<path d="M340.152 315C341.533 315 342.652 313.881 342.652 312.5C342.652 311.119 341.533 310 340.152 310V315ZM101.85 315H109.297V310H101.85V315ZM124.19 315H139.084V310H124.19V315ZM153.978 315H168.872V310H153.978V315ZM183.766 315H198.66V310H183.766V315ZM213.554 315H228.448V310H213.554V315ZM243.342 315H258.236V310H243.342V315ZM273.129 315H288.023V310H273.129V315ZM302.917 315H317.811V310H302.917V315ZM332.705 315H340.152V310H332.705V315Z" fill="white"/>
<path d="M796.302 315.5C797.683 315.5 798.802 314.381 798.802 313C798.802 311.619 797.683 310.5 796.302 310.5V315.5ZM558 315.5H565.447V310.5H558V315.5ZM580.341 315.5H595.235V310.5H580.341V315.5ZM610.129 315.5H625.023V310.5H610.129V315.5ZM639.916 315.5H654.81V310.5H639.916V315.5ZM669.704 315.5H684.598V310.5H669.704V315.5ZM699.492 315.5H714.386V310.5H699.492V315.5ZM729.28 315.5H744.174V310.5H729.28V315.5ZM759.068 315.5H773.961V310.5H759.068V315.5ZM788.855 315.5H796.302V310.5H788.855V315.5Z" fill="white"/>
<path d="M1252.45 316C1253.83 316 1254.95 314.881 1254.95 313.5C1254.95 312.119 1253.83 311 1252.45 311V316ZM1014.15 316H1021.6V311H1014.15V316ZM1036.49 316H1051.39V311H1036.49V316ZM1066.28 316H1081.17V311H1066.28V316ZM1096.07 316H1110.96V311H1096.07V316ZM1125.85 316H1140.75V311H1125.85V316ZM1155.64 316H1170.54V311H1155.64V316ZM1185.43 316H1200.32V311H1185.43V316ZM1215.22 316H1230.11V311H1215.22V316ZM1245.01 316H1252.45V311H1245.01V316Z" fill="white"/>
<path d="M940.302 725.5C941.683 725.5 942.802 724.381 942.802 723C942.802 721.619 941.683 720.5 940.302 720.5V725.5ZM702 725.5H709.447V720.5H702V725.5ZM724.341 725.5H739.235V720.5H724.341V725.5ZM754.129 725.5H769.023V720.5H754.129V725.5ZM783.916 725.5H798.81V720.5H783.916V725.5ZM813.704 725.5H828.598V720.5H813.704V725.5ZM843.492 725.5H858.386V720.5H843.492V725.5ZM873.28 725.5H888.174V720.5H873.28V725.5ZM903.068 725.5H917.961V720.5H903.068V725.5ZM932.855 725.5H940.302V720.5H932.855V725.5Z" fill="white"/>
<path d="M558.302 725.5C559.683 725.5 560.802 724.381 560.802 723C560.802 721.619 559.683 720.5 558.302 720.5V725.5ZM320 725.5H327.447V720.5H320V725.5ZM342.341 725.5H357.235V720.5H342.341V725.5ZM372.129 725.5H387.023V720.5H372.129V725.5ZM401.916 725.5H416.81V720.5H401.916V725.5ZM431.704 725.5H446.598V720.5H431.704V725.5ZM461.492 725.5H476.386V720.5H461.492V725.5ZM491.28 725.5H506.174V720.5H491.28V725.5ZM521.068 725.5H535.961V720.5H521.068V725.5ZM550.855 725.5H558.302V720.5H550.855V725.5Z" fill="white"/>
<path d="M176.302 725.5C177.683 725.5 178.802 724.381 178.802 723C178.802 721.619 177.683 720.5 176.302 720.5V725.5ZM-62 725.5H-54.5531V720.5H-62V725.5ZM-39.6592 725.5H-24.7653V720.5H-39.6592V725.5ZM-9.87137 725.5H5.02253V720.5H-9.87137V725.5ZM19.9164 725.5H34.8103V720.5H19.9164V725.5ZM49.7042 725.5H64.5981V720.5H49.7042V725.5ZM79.492 725.5H94.3859V720.5H79.492V725.5ZM109.28 725.5H124.174V720.5H109.28V725.5ZM139.068 725.5H153.961V720.5H139.068V725.5ZM168.855 725.5H176.302V720.5H168.855V725.5Z" fill="white"/>
<path d="M1371.3 725.5C1372.68 725.5 1373.8 724.381 1373.8 723C1373.8 721.619 1372.68 720.5 1371.3 720.5V725.5ZM1133 725.5H1140.45V720.5H1133V725.5ZM1155.34 725.5H1170.23V720.5H1155.34V725.5ZM1185.13 725.5H1200.02V720.5H1185.13V725.5ZM1214.92 725.5H1229.81V720.5H1214.92V725.5ZM1244.7 725.5H1259.6V720.5H1244.7V725.5ZM1274.49 725.5H1289.39V720.5H1274.49V725.5ZM1304.28 725.5H1319.17V720.5H1304.28V725.5ZM1334.07 725.5H1348.96V720.5H1334.07V725.5ZM1363.86 725.5H1371.3V720.5H1363.86V725.5Z" fill="white"/>
</g>
<defs>
<clipPath id="clip0_404_2">
<rect width="1440" height="1024" fill="white"/>
</clipPath>
</defs>
</svg>
